<?xml version="1.0" encoding="UTF-8"?>
<!DOCTYPE svg PUBLIC "-//W3C//DTD SVG 1.1//EN" "http://www.w3.org/Graphics/SVG/1.1/DTD/svg11.dtd">
<!-- Creator: CorelDRAW -->
<svg xmlns="http://www.w3.org/2000/svg" xml:space="preserve" width="210mm" height="380mm" style="shape-rendering:geometricPrecision; text-rendering:geometricPrecision; image-rendering:optimizeQuality; fill-rule:evenodd; clip-rule:evenodd"
viewBox="0 0 210 380"
 xmlns:xlink="http://www.w3.org/1999/xlink">
 <defs>
  <style type="text/css">
   <![CDATA[
    .str0 {stroke:#1F1A17;stroke-width:0.0762}
    .str1 {stroke:#1F1A17;stroke-width:0.7055}
    .fil3 {fill:none}
    .fil1 {fill:white}
    .fil0 {fill:black}
    .fil2 {fill:white}
   ]]>
  </style>
   <clipPath id="id0">
    <rect x="200.925" y="32.4396" width="315.361" height="358.215"/>
   </clipPath>
   <clipPath id="id1">
    <rect x="0.3559" y="385.253" width="315.361" height="358.215"/>
   </clipPath>
 </defs>
 <g id="Layer_x0020_1">
  <metadata id="CorelCorpID_0Corel-Layer"/>
  <g style="clip-path:url(#id0)">
   <image transform="matrix(3.11477 0 0 3.11477 -126.126 -201.151)" x="105" y="74.9946" width="101.247" height="115.005" xlink:href="phone_Images\phone_ImgID1.png"/>
  </g>
  <path class="fil0 str0" d="M44.8551 45.9068l118.238 -0.5207c20.1258,-0.0886 31.2532,8.608 31.2532,19.128l0 286.985c0,10.5205 -8.4931,19.128 -18.8738,19.128l-139.122 0c-10.3807,0 -18.8738,-8.6075 -18.8738,-19.128l0 -286.985c0,-11.9751 8.0149,-18.522 27.3783,-18.6073z"/>
  <rect class="fil1 str0" x="24.8829" y="70.1449" width="162.058" height="284.163"/>
  <g style="clip-path:url(#id1)">
   <image transform="matrix(3.11477 0 0 3.11477 -326.695 151.662)" x="105" y="74.9946" width="101.247" height="115.005" xlink:href="phone_Images\phone_ImgID2.png"/>
  </g>
  <rect class="fil2 str0" x="78.3025" y="52.2132" width="55.2184" height="4.99996" rx="3.8628" ry="3.8628"/>
  <circle class="fil2 str0" cx="161.656" cy="54.5308" r="3.7596"/>
  <rect class="fil3 str0" x="349.097" y="339.373" width="9" height="9"/>
  <circle class="fil3 str1" cx="103.782" cy="340.963" r="4.5"/>
  <polygon class="fil3 str1" points="57.7846,336 57.7849,340.833 57.7846,345.666 53.6763,343.25 49.5689,340.833 53.6763,338.417 "/>
  <rect class="fil3 str1" x="146.944" y="336.64" width="9" height="9"/>
 </g>
</svg>
