<?xml version="1.0" encoding="UTF-8"?>
<!DOCTYPE svg PUBLIC "-//W3C//DTD SVG 1.1//EN" "http://www.w3.org/Graphics/SVG/1.1/DTD/svg11.dtd">
<!-- Creator: CorelDRAW -->
<svg xmlns="http://www.w3.org/2000/svg" xml:space="preserve" width="69.5484mm" height="210.429mm" style="shape-rendering:geometricPrecision; text-rendering:geometricPrecision; image-rendering:optimizeQuality; fill-rule:evenodd; clip-rule:evenodd"
viewBox="0 0 57.2203 173.129"
 xmlns:xlink="http://www.w3.org/1999/xlink">
 <defs>
  <style type="text/css">
   <![CDATA[
    .str1 {stroke:#1F1A17;stroke-width:0.0626928}
    .str0 {stroke:black;stroke-width:0.0626928}
    .fil1 {fill:white}
    .fil0 {fill:black}
    .fil2 {fill:white}
   ]]>
  </style>
 </defs>
 <g id="Layer_x0020_1">
  <metadata id="CorelCorpID_0Corel-Layer"/>
  <path class="fil0 str0" d="M12.5857 0.0313464l31.8641 0 0 56.0369c-12.463,-7.80386 -28.9109,-3.63215 -31.8641,0l0 -56.0369z"/>
  <rect class="fil1 str0" x="26.2323" y="35.6807" width="4.90107" height="4.90107" rx="2.45053" ry="2.45053"/>
  <rect class="fil1 str0" x="26.0925" y="22.6752" width="4.90107" height="4.90107" rx="2.45053" ry="2.45053"/>
  <rect class="fil2 str0" x="26.2323" y="10.3003" width="4.90107" height="4.90107" rx="2.45053" ry="2.45053"/>
  <path class="fil0 str0" d="M12.4364 117.061c11.2164,6.74491 21.7677,5.95138 31.8641,0l0 56.0369 -31.8641 0 0 -56.0369z"/>
  <rect class="fil0 str1" x="0.0313464" y="58.2218" width="57.1576" height="57.1576" rx="37.5447" ry="37.5447"/>
  <rect class="fil1 str0" x="9.83776" y="68.0282" width="37.5447" height="37.5447" rx="20.1733" ry="20.1733"/>
 </g>
</svg>
