<?xml version="1.0" encoding="UTF-8"?>
<!DOCTYPE svg PUBLIC "-//W3C//DTD SVG 1.1//EN" "http://www.w3.org/Graphics/SVG/1.1/DTD/svg11.dtd">
<!-- Creator: CorelDRAW -->
<svg xmlns="http://www.w3.org/2000/svg" xml:space="preserve" width="2249.87mm" height="1326.78mm" style="shape-rendering:geometricPrecision; text-rendering:geometricPrecision; image-rendering:optimizeQuality; fill-rule:evenodd; clip-rule:evenodd"
viewBox="0 0 2257.31 1331.16"
 xmlns:xlink="http://www.w3.org/1999/xlink">
 <defs>
  <style type="text/css">
   <![CDATA[
    .str0 {stroke:black;stroke-width:0.686763}
    .str1 {stroke:#A3CED5;stroke-width:0.686763}
    .fil0 {fill:#63C1F0;fill-rule:nonzero}
   ]]>
  </style>
 </defs>
 <g id="Layer_x0020_1">
  <metadata id="CorelCorpID_0Corel-Layer"/>
  <g id="_56880248">
   <g id="layer1">
    <g id="g6444">
     <path id="path5530" class="fil0 str0" d="M1203.69 12.9628c-232.83,0 -429.503,167.349 -490.695,395.883 -25.474,-16.235 -54.7805,-25.5761 -86.1141,-25.5761 -96.9003,0 -175.525,88.6172 -175.525,197.832 0,1.11247 -0.0163539,2.17115 0,3.27891 -29.027,-6.70259 -59.461,-10.4927 -90.9629,-10.4927 -192.07,0 -347.947,133.035 -347.947,296.858 0,163.823 155.877,296.858 347.947,296.858 76.0739,0 146.365,-21.0269 203.648,-56.3986 34.2113,115.365 130.755,198.707 244.572,198.707 77.125,0 146.281,-38.2729 193.563,-98.8068 45.8692,27.0431 99.8098,42.6268 157.488,42.6268 78.4768,0 150.094,-28.7719 203.842,-76.0724 72.4262,84.7209 178.924,138.373 297.714,138.373 145.73,0 273.096,-80.8173 341.547,-200.674 10.3049,1.70201 20.8771,2.62324 31.6139,2.62324 115.934,0 209.855,-102.762 209.855,-229.529 0,-126.767 -93.9206,-229.748 -209.855,-229.748 -20.7453,0 -40.8044,3.48248 -59.7368,9.6184 -62.4712,-82.9978 -155.873,-140.539 -262.609,-154.55 -21.8335,-280.38 -241.114,-500.811 -508.345,-500.811l0.000100331 0.000100331z"/>
     <path id="path6438" class="fil0 str1" d="M1192.59 0.501553c-212.816,0.717464 -420.881,160.942 -487.01,389.762 -96.2555,-55.0155 -225.549,8.62783 -256.791,124.383 -5.11807,17.553 -8.47794,35.9555 -9.30968,54.4312 -151.019,-29.9759 -329.625,25.7271 -410.594,181 -54.1559,101.305 -27.8349,238.717 49.2634,315.22 125.029,134.019 329.74,148.176 479.64,68.6401 48.633,146.386 206.421,229.203 337.668,175.317 41.7996,-15.2422 79.8831,-45.4409 110.164,-79.133 112.567,61.2012 255.074,50.3264 356.675,-32.5712 162.97,184.472 460.228,176.963 613.466,-18.5809 18.3012,-14.0865 23.528,-55.2883 50.2334,-45.9059 123.785,9.6811 240.344,-115.202 230.413,-256.198 -4.04904,-145.221 -137.238,-256.485 -262.221,-226.687 -25.7775,12.0386 -35.6522,-30.9153 -56.8276,-41.7524 -59.9338,-59.3461 -139.489,-91.6828 -214.121,-107.988 -22.7464,-253.231 -217.085,-460.401 -438.07,-493.29 -30.54,-5.21288 -61.6122,-7.45226 -92.5791,-6.646l0.000300992 -0.000200661z"/>
    </g>
   </g>
  </g>
 </g>
</svg>
